<svg xmlns="http://www.w3.org/2000/svg" version="1.1" xmlns:xlink="http://www.w3.org/1999/xlink" xmlns:svgjs="http://svgjs.dev/svgjs" width="1440" height="250" preserveAspectRatio="none" viewBox="0 0 1440 250"><g mask="url(&quot;#SvgjsMask1006&quot;)" fill="none"><path d="M44 250L294 0L396 0L146 250z" fill="url(&quot;#SvgjsLinearGradient1007&quot;)"></path><path d="M250.60000000000002 250L500.6 0L667.1 0L417.1 250z" fill="url(&quot;#SvgjsLinearGradient1007&quot;)"></path><path d="M515.2 250L765.2 0L999.2 0L749.2 250z" fill="url(&quot;#SvgjsLinearGradient1007&quot;)"></path><path d="M720.8000000000001 250L970.8000000000001 0L1083.3000000000002 0L833.3000000000001 250z" fill="url(&quot;#SvgjsLinearGradient1007&quot;)"></path><path d="M1412 250L1162 0L971.5 0L1221.5 250z" fill="url(&quot;#SvgjsLinearGradient1008&quot;)"></path><path d="M1163.4 250L913.4000000000001 0L638.9000000000001 0L888.9000000000001 250z" fill="url(&quot;#SvgjsLinearGradient1008&quot;)"></path><path d="M939.8 250L689.8 0L335.79999999999995 0L585.8 250z" fill="url(&quot;#SvgjsLinearGradient1008&quot;)"></path><path d="M706.1999999999999 250L456.19999999999993 0L411.19999999999993 0L661.1999999999999 250z" fill="url(&quot;#SvgjsLinearGradient1008&quot;)"></path><path d="M1192.121022499169 250L1440 2.121022499168987L1440 250z" fill="url(&quot;#SvgjsLinearGradient1007&quot;)"></path><path d="M0 250L247.878977500831 250L 0 2.121022499168987z" fill="url(&quot;#SvgjsLinearGradient1008&quot;)"></path></g><defs><mask id="SvgjsMask1006"><rect width="1440" height="250" fill="#ffffff"></rect></mask><linearGradient x1="0%" y1="100%" x2="100%" y2="0%" id="SvgjsLinearGradient1007"><stop stop-color="rgba(0, 254, 177, 0.2)" offset="0"></stop><stop stop-opacity="0" stop-color="rgba(0, 254, 177, 0.2)" offset="0.66"></stop></linearGradient><linearGradient x1="100%" y1="100%" x2="0%" y2="0%" id="SvgjsLinearGradient1008"><stop stop-color="rgba(0, 254, 177, 0.2)" offset="0"></stop><stop stop-opacity="0" stop-color="rgba(0, 254, 177, 0.2)" offset="0.66"></stop></linearGradient></defs></svg>