<svg xmlns="http://www.w3.org/2000/svg" version="1.1" xmlns:xlink="http://www.w3.org/1999/xlink" xmlns:svgjs="http://svgjs.dev/svgjs" width="1440" height="560" preserveAspectRatio="none" viewBox="0 0 1440 560"><g mask="url(&quot;#SvgjsMask1010&quot;)" fill="none"><path d="M-63.93 400.07L-63.93 400.07" stroke="rgba(27, 255, 101, 1)" stroke-width="1.5"></path><path d="M-63.93 400.07L-71.88 508.85" stroke="rgba(27, 255, 101, 1)" stroke-width="1.5"></path><path d="M-63.93 400.07L92.76 370.02" stroke="rgba(27, 255, 101, 1)" stroke-width="1.5"></path><path d="M-71.88 508.85L-71.88 508.85" stroke="rgba(27, 255, 101, 1)" stroke-width="1.5"></path><path d="M-71.88 508.85L-89.09 706.1" stroke="rgba(27, 255, 101, 1)" stroke-width="1.5"></path><path d="M-71.88 508.85L92.76 370.02" stroke="rgba(27, 255, 101, 1)" stroke-width="1.5"></path><path d="M-89.09 706.1L-89.09 706.1" stroke="rgba(27, 255, 101, 1)" stroke-width="1.5"></path><path d="M-89.09 706.1L-63.93 400.07" stroke="rgba(27, 255, 101, 1)" stroke-width="1.5"></path><path d="M-89.09 706.1L204.69 496.95" stroke="rgba(27, 255, 101, 1)" stroke-width="1.5"></path><path d="M92.76 370.02L92.76 370.02" stroke="rgba(27, 255, 101, 1)" stroke-width="1.5"></path><path d="M92.76 370.02L221.4 348.26" stroke="rgba(27, 255, 101, 1)" stroke-width="1.5"></path><path d="M92.76 370.02L204.69 496.95" stroke="rgba(27, 255, 101, 1)" stroke-width="1.5"></path><path d="M92.76 370.02L339.88 373.8" stroke="rgba(27, 255, 101, 1)" stroke-width="1.5"></path><path d="M221.4 348.26L221.4 348.26" stroke="rgba(27, 255, 101, 1)" stroke-width="1.5"></path><path d="M221.4 348.26L339.88 373.8" stroke="rgba(27, 255, 101, 1)" stroke-width="1.5"></path><path d="M221.4 348.26L204.69 496.95" stroke="rgba(27, 255, 101, 1)" stroke-width="1.5"></path><path d="M221.4 348.26L363.28 548.25" stroke="rgba(27, 255, 101, 1)" stroke-width="1.5"></path><path d="M204.69 496.95L204.69 496.95" stroke="rgba(27, 255, 101, 1)" stroke-width="1.5"></path><path d="M204.69 496.95L363.28 548.25" stroke="rgba(27, 255, 101, 1)" stroke-width="1.5"></path><path d="M339.88 373.8L339.88 373.8" stroke="rgba(27, 255, 101, 1)" stroke-width="1.5"></path><path d="M339.88 373.8L363.28 548.25" stroke="rgba(27, 255, 101, 1)" stroke-width="1.5"></path><path d="M363.28 548.25L363.28 548.25" stroke="rgba(27, 255, 101, 1)" stroke-width="1.5"></path><path d="M363.28 548.25L338.31 674.18" stroke="rgba(27, 255, 101, 1)" stroke-width="1.5"></path><path d="M363.28 548.25L508.72 641.74" stroke="rgba(27, 255, 101, 1)" stroke-width="1.5"></path><path d="M363.28 548.25L525.88 488.76" stroke="rgba(27, 255, 101, 1)" stroke-width="1.5"></path><path d="M338.31 674.18L338.31 674.18" stroke="rgba(27, 255, 101, 1)" stroke-width="1.5"></path><path d="M338.31 674.18L508.72 641.74" stroke="rgba(27, 255, 101, 1)" stroke-width="1.5"></path><path d="M338.31 674.18L204.69 496.95" stroke="rgba(27, 255, 101, 1)" stroke-width="1.5"></path><path d="M338.31 674.18L525.88 488.76" stroke="rgba(27, 255, 101, 1)" stroke-width="1.5"></path><path d="M338.31 674.18L339.88 373.8" stroke="rgba(27, 255, 101, 1)" stroke-width="1.5"></path><path d="M338.31 674.18L221.4 348.26" stroke="rgba(27, 255, 101, 1)" stroke-width="1.5"></path><path d="M553.91 386.98L553.91 386.98" stroke="rgba(27, 255, 101, 1)" stroke-width="1.5"></path><path d="M553.91 386.98L525.88 488.76" stroke="rgba(27, 255, 101, 1)" stroke-width="1.5"></path><path d="M553.91 386.98L688.07 369.56" stroke="rgba(27, 255, 101, 1)" stroke-width="1.5"></path><path d="M553.91 386.98L339.88 373.8" stroke="rgba(27, 255, 101, 1)" stroke-width="1.5"></path><path d="M553.91 386.98L709.25 228.36" stroke="rgba(27, 255, 101, 1)" stroke-width="1.5"></path><path d="M553.91 386.98L363.28 548.25" stroke="rgba(27, 255, 101, 1)" stroke-width="1.5"></path><path d="M553.91 386.98L508.72 641.74" stroke="rgba(27, 255, 101, 1)" stroke-width="1.5"></path><path d="M525.88 488.76L525.88 488.76" stroke="rgba(27, 255, 101, 1)" stroke-width="1.5"></path><path d="M525.88 488.76L508.72 641.74" stroke="rgba(27, 255, 101, 1)" stroke-width="1.5"></path><path d="M525.88 488.76L688.07 369.56" stroke="rgba(27, 255, 101, 1)" stroke-width="1.5"></path><path d="M508.72 641.74L508.72 641.74" stroke="rgba(27, 255, 101, 1)" stroke-width="1.5"></path><path d="M508.72 641.74L709.76 701.56" stroke="rgba(27, 255, 101, 1)" stroke-width="1.5"></path><path d="M508.72 641.74L339.88 373.8" stroke="rgba(27, 255, 101, 1)" stroke-width="1.5"></path><path d="M709.25 228.36L709.25 228.36" stroke="rgba(27, 255, 101, 1)" stroke-width="1.5"></path><path d="M709.25 228.36L847.34 207.14" stroke="rgba(27, 255, 101, 1)" stroke-width="1.5"></path><path d="M709.25 228.36L688.07 369.56" stroke="rgba(27, 255, 101, 1)" stroke-width="1.5"></path><path d="M688.07 369.56L688.07 369.56" stroke="rgba(27, 255, 101, 1)" stroke-width="1.5"></path><path d="M688.07 369.56L816.77 368.56" stroke="rgba(27, 255, 101, 1)" stroke-width="1.5"></path><path d="M709.76 701.56L709.76 701.56" stroke="rgba(27, 255, 101, 1)" stroke-width="1.5"></path><path d="M709.76 701.56L854.2 524.92" stroke="rgba(27, 255, 101, 1)" stroke-width="1.5"></path><path d="M847.34 207.14L847.34 207.14" stroke="rgba(27, 255, 101, 1)" stroke-width="1.5"></path><path d="M847.34 207.14L982.35 251.11" stroke="rgba(27, 255, 101, 1)" stroke-width="1.5"></path><path d="M847.34 207.14L816.77 368.56" stroke="rgba(27, 255, 101, 1)" stroke-width="1.5"></path><path d="M847.34 207.14L955.52 53.86" stroke="rgba(27, 255, 101, 1)" stroke-width="1.5"></path><path d="M847.34 207.14L952.96 401.02" stroke="rgba(27, 255, 101, 1)" stroke-width="1.5"></path><path d="M847.34 207.14L688.07 369.56" stroke="rgba(27, 255, 101, 1)" stroke-width="1.5"></path><path d="M816.77 368.56L816.77 368.56" stroke="rgba(27, 255, 101, 1)" stroke-width="1.5"></path><path d="M854.2 524.92L854.2 524.92" stroke="rgba(27, 255, 101, 1)" stroke-width="1.5"></path><path d="M854.2 524.92L1006.25 525.58" stroke="rgba(27, 255, 101, 1)" stroke-width="1.5"></path><path d="M854.2 524.92L952.96 401.02" stroke="rgba(27, 255, 101, 1)" stroke-width="1.5"></path><path d="M1009.22 -104.86L1009.22 -104.86" stroke="rgba(27, 255, 101, 1)" stroke-width="1.5"></path><path d="M1009.22 -104.86L1101.15 -105.42" stroke="rgba(27, 255, 101, 1)" stroke-width="1.5"></path><path d="M1009.22 -104.86L955.52 53.86" stroke="rgba(27, 255, 101, 1)" stroke-width="1.5"></path><path d="M1009.22 -104.86L1088.72 51.11" stroke="rgba(27, 255, 101, 1)" stroke-width="1.5"></path><path d="M955.52 53.86L955.52 53.86" stroke="rgba(27, 255, 101, 1)" stroke-width="1.5"></path><path d="M955.52 53.86L1088.72 51.11" stroke="rgba(27, 255, 101, 1)" stroke-width="1.5"></path><path d="M955.52 53.86L982.35 251.11" stroke="rgba(27, 255, 101, 1)" stroke-width="1.5"></path><path d="M955.52 53.86L1101.15 -105.42" stroke="rgba(27, 255, 101, 1)" stroke-width="1.5"></path><path d="M955.52 53.86L1128.82 242.67" stroke="rgba(27, 255, 101, 1)" stroke-width="1.5"></path><path d="M982.35 251.11L982.35 251.11" stroke="rgba(27, 255, 101, 1)" stroke-width="1.5"></path><path d="M982.35 251.11L1128.82 242.67" stroke="rgba(27, 255, 101, 1)" stroke-width="1.5"></path><path d="M982.35 251.11L952.96 401.02" stroke="rgba(27, 255, 101, 1)" stroke-width="1.5"></path><path d="M982.35 251.11L816.77 368.56" stroke="rgba(27, 255, 101, 1)" stroke-width="1.5"></path><path d="M982.35 251.11L1088.72 51.11" stroke="rgba(27, 255, 101, 1)" stroke-width="1.5"></path><path d="M952.96 401.02L952.96 401.02" stroke="rgba(27, 255, 101, 1)" stroke-width="1.5"></path><path d="M952.96 401.02L1006.25 525.58" stroke="rgba(27, 255, 101, 1)" stroke-width="1.5"></path><path d="M952.96 401.02L816.77 368.56" stroke="rgba(27, 255, 101, 1)" stroke-width="1.5"></path><path d="M952.96 401.02L1092.9 493.08" stroke="rgba(27, 255, 101, 1)" stroke-width="1.5"></path><path d="M1006.25 525.58L1006.25 525.58" stroke="rgba(27, 255, 101, 1)" stroke-width="1.5"></path><path d="M1006.25 525.58L1092.9 493.08" stroke="rgba(27, 255, 101, 1)" stroke-width="1.5"></path><path d="M1006.25 525.58L999.7 660.21" stroke="rgba(27, 255, 101, 1)" stroke-width="1.5"></path><path d="M1006.25 525.58L1089.57 652.74" stroke="rgba(27, 255, 101, 1)" stroke-width="1.5"></path><path d="M1006.25 525.58L816.77 368.56" stroke="rgba(27, 255, 101, 1)" stroke-width="1.5"></path><path d="M999.7 660.21L999.7 660.21" stroke="rgba(27, 255, 101, 1)" stroke-width="1.5"></path><path d="M999.7 660.21L1089.57 652.74" stroke="rgba(27, 255, 101, 1)" stroke-width="1.5"></path><path d="M999.7 660.21L1092.9 493.08" stroke="rgba(27, 255, 101, 1)" stroke-width="1.5"></path><path d="M1101.15 -105.42L1101.15 -105.42" stroke="rgba(27, 255, 101, 1)" stroke-width="1.5"></path><path d="M1101.15 -105.42L1088.72 51.11" stroke="rgba(27, 255, 101, 1)" stroke-width="1.5"></path><path d="M1101.15 -105.42L1288.59 -110.73" stroke="rgba(27, 255, 101, 1)" stroke-width="1.5"></path><path d="M1101.15 -105.42L1312.39 61.62" stroke="rgba(27, 255, 101, 1)" stroke-width="1.5"></path><path d="M1088.72 51.11L1088.72 51.11" stroke="rgba(27, 255, 101, 1)" stroke-width="1.5"></path><path d="M1088.72 51.11L1128.82 242.67" stroke="rgba(27, 255, 101, 1)" stroke-width="1.5"></path><path d="M1128.82 242.67L1128.82 242.67" stroke="rgba(27, 255, 101, 1)" stroke-width="1.5"></path><path d="M1128.82 242.67L1244.87 215.61" stroke="rgba(27, 255, 101, 1)" stroke-width="1.5"></path><path d="M1128.82 242.67L1283.08 366.92" stroke="rgba(27, 255, 101, 1)" stroke-width="1.5"></path><path d="M1092.9 493.08L1092.9 493.08" stroke="rgba(27, 255, 101, 1)" stroke-width="1.5"></path><path d="M1092.9 493.08L1089.57 652.74" stroke="rgba(27, 255, 101, 1)" stroke-width="1.5"></path><path d="M1089.57 652.74L1089.57 652.74" stroke="rgba(27, 255, 101, 1)" stroke-width="1.5"></path><path d="M1089.57 652.74L1259.55 680.17" stroke="rgba(27, 255, 101, 1)" stroke-width="1.5"></path><path d="M1089.57 652.74L1258.98 525.8" stroke="rgba(27, 255, 101, 1)" stroke-width="1.5"></path><path d="M1089.57 652.74L854.2 524.92" stroke="rgba(27, 255, 101, 1)" stroke-width="1.5"></path><path d="M1288.59 -110.73L1288.59 -110.73" stroke="rgba(27, 255, 101, 1)" stroke-width="1.5"></path><path d="M1288.59 -110.73L1390.84 -107.44" stroke="rgba(27, 255, 101, 1)" stroke-width="1.5"></path><path d="M1288.59 -110.73L1312.39 61.62" stroke="rgba(27, 255, 101, 1)" stroke-width="1.5"></path><path d="M1288.59 -110.73L1424.94 60.62" stroke="rgba(27, 255, 101, 1)" stroke-width="1.5"></path><path d="M1288.59 -110.73L1088.72 51.11" stroke="rgba(27, 255, 101, 1)" stroke-width="1.5"></path><path d="M1312.39 61.62L1312.39 61.62" stroke="rgba(27, 255, 101, 1)" stroke-width="1.5"></path><path d="M1312.39 61.62L1424.94 60.62" stroke="rgba(27, 255, 101, 1)" stroke-width="1.5"></path><path d="M1312.39 61.62L1244.87 215.61" stroke="rgba(27, 255, 101, 1)" stroke-width="1.5"></path><path d="M1244.87 215.61L1244.87 215.61" stroke="rgba(27, 255, 101, 1)" stroke-width="1.5"></path><path d="M1244.87 215.61L1396.17 222.68" stroke="rgba(27, 255, 101, 1)" stroke-width="1.5"></path><path d="M1283.08 366.92L1283.08 366.92" stroke="rgba(27, 255, 101, 1)" stroke-width="1.5"></path><path d="M1283.08 366.92L1411.27 410.03" stroke="rgba(27, 255, 101, 1)" stroke-width="1.5"></path><path d="M1283.08 366.92L1244.87 215.61" stroke="rgba(27, 255, 101, 1)" stroke-width="1.5"></path><path d="M1283.08 366.92L1258.98 525.8" stroke="rgba(27, 255, 101, 1)" stroke-width="1.5"></path><path d="M1283.08 366.92L1396.17 222.68" stroke="rgba(27, 255, 101, 1)" stroke-width="1.5"></path><path d="M1258.98 525.8L1258.98 525.8" stroke="rgba(27, 255, 101, 1)" stroke-width="1.5"></path><path d="M1258.98 525.8L1259.55 680.17" stroke="rgba(27, 255, 101, 1)" stroke-width="1.5"></path><path d="M1258.98 525.8L1092.9 493.08" stroke="rgba(27, 255, 101, 1)" stroke-width="1.5"></path><path d="M1259.55 680.17L1259.55 680.17" stroke="rgba(27, 255, 101, 1)" stroke-width="1.5"></path><path d="M1259.55 680.17L1395.17 671.69" stroke="rgba(27, 255, 101, 1)" stroke-width="1.5"></path><path d="M1390.84 -107.44L1390.84 -107.44" stroke="rgba(27, 255, 101, 1)" stroke-width="1.5"></path><path d="M1390.84 -107.44L1424.94 60.62" stroke="rgba(27, 255, 101, 1)" stroke-width="1.5"></path><path d="M1424.94 60.62L1424.94 60.62" stroke="rgba(27, 255, 101, 1)" stroke-width="1.5"></path><path d="M1424.94 60.62L1396.17 222.68" stroke="rgba(27, 255, 101, 1)" stroke-width="1.5"></path><path d="M1396.17 222.68L1396.17 222.68" stroke="rgba(27, 255, 101, 1)" stroke-width="1.5"></path><path d="M1396.17 222.68L1312.39 61.62" stroke="rgba(27, 255, 101, 1)" stroke-width="1.5"></path><path d="M1396.17 222.68L1411.27 410.03" stroke="rgba(27, 255, 101, 1)" stroke-width="1.5"></path><path d="M1411.27 410.03L1411.27 410.03" stroke="rgba(27, 255, 101, 1)" stroke-width="1.5"></path><path d="M1411.27 410.03L1429.36 529.07" stroke="rgba(27, 255, 101, 1)" stroke-width="1.5"></path><path d="M1429.36 529.07L1429.36 529.07" stroke="rgba(27, 255, 101, 1)" stroke-width="1.5"></path><path d="M1429.36 529.07L1395.17 671.69" stroke="rgba(27, 255, 101, 1)" stroke-width="1.5"></path><path d="M1429.36 529.07L1258.98 525.8" stroke="rgba(27, 255, 101, 1)" stroke-width="1.5"></path><path d="M1429.36 529.07L1604.52 518.73" stroke="rgba(27, 255, 101, 1)" stroke-width="1.5"></path><path d="M1395.17 671.69L1395.17 671.69" stroke="rgba(27, 255, 101, 1)" stroke-width="1.5"></path><path d="M1395.17 671.69L1258.98 525.8" stroke="rgba(27, 255, 101, 1)" stroke-width="1.5"></path><path d="M1395.17 671.69L1606.8 642.85" stroke="rgba(27, 255, 101, 1)" stroke-width="1.5"></path><path d="M1395.17 671.69L1604.52 518.73" stroke="rgba(27, 255, 101, 1)" stroke-width="1.5"></path><path d="M1395.17 671.69L1411.27 410.03" stroke="rgba(27, 255, 101, 1)" stroke-width="1.5"></path><path d="M1608.79 -85.39L1608.79 -85.39" stroke="rgba(27, 255, 101, 1)" stroke-width="1.5"></path><path d="M1608.79 -85.39L1612 110.85" stroke="rgba(27, 255, 101, 1)" stroke-width="1.5"></path><path d="M1608.79 -85.39L1390.84 -107.44" stroke="rgba(27, 255, 101, 1)" stroke-width="1.5"></path><path d="M1608.79 -85.39L1424.94 60.62" stroke="rgba(27, 255, 101, 1)" stroke-width="1.5"></path><path d="M1608.79 -85.39L1597.58 224.7" stroke="rgba(27, 255, 101, 1)" stroke-width="1.5"></path><path d="M1612 110.85L1612 110.85" stroke="rgba(27, 255, 101, 1)" stroke-width="1.5"></path><path d="M1612 110.85L1597.58 224.7" stroke="rgba(27, 255, 101, 1)" stroke-width="1.5"></path><path d="M1612 110.85L1424.94 60.62" stroke="rgba(27, 255, 101, 1)" stroke-width="1.5"></path><path d="M1612 110.85L1558.53 339.02" stroke="rgba(27, 255, 101, 1)" stroke-width="1.5"></path><path d="M1597.58 224.7L1597.58 224.7" stroke="rgba(27, 255, 101, 1)" stroke-width="1.5"></path><path d="M1597.58 224.7L1558.53 339.02" stroke="rgba(27, 255, 101, 1)" stroke-width="1.5"></path><path d="M1597.58 224.7L1396.17 222.68" stroke="rgba(27, 255, 101, 1)" stroke-width="1.5"></path><path d="M1597.58 224.7L1424.94 60.62" stroke="rgba(27, 255, 101, 1)" stroke-width="1.5"></path><path d="M1597.58 224.7L1411.27 410.03" stroke="rgba(27, 255, 101, 1)" stroke-width="1.5"></path><path d="M1558.53 339.02L1558.53 339.02" stroke="rgba(27, 255, 101, 1)" stroke-width="1.5"></path><path d="M1558.53 339.02L1411.27 410.03" stroke="rgba(27, 255, 101, 1)" stroke-width="1.5"></path><path d="M1558.53 339.02L1604.52 518.73" stroke="rgba(27, 255, 101, 1)" stroke-width="1.5"></path><path d="M1558.53 339.02L1396.17 222.68" stroke="rgba(27, 255, 101, 1)" stroke-width="1.5"></path><path d="M1558.53 339.02L1429.36 529.07" stroke="rgba(27, 255, 101, 1)" stroke-width="1.5"></path><path d="M1604.52 518.73L1604.52 518.73" stroke="rgba(27, 255, 101, 1)" stroke-width="1.5"></path><path d="M1604.52 518.73L1606.8 642.85" stroke="rgba(27, 255, 101, 1)" stroke-width="1.5"></path><path d="M1604.52 518.73L1411.27 410.03" stroke="rgba(27, 255, 101, 1)" stroke-width="1.5"></path><path d="M1604.52 518.73L1597.58 224.7" stroke="rgba(27, 255, 101, 1)" stroke-width="1.5"></path><path d="M1606.8 642.85L1606.8 642.85" stroke="rgba(27, 255, 101, 1)" stroke-width="1.5"></path><path d="M1606.8 642.85L1429.36 529.07" stroke="rgba(27, 255, 101, 1)" stroke-width="1.5"></path><path d="M1606.8 642.85L1411.27 410.03" stroke="rgba(27, 255, 101, 1)" stroke-width="1.5"></path><path d="M1606.8 642.85L1558.53 339.02" stroke="rgba(27, 255, 101, 1)" stroke-width="1.5"></path><path d="M1606.8 642.85L1259.55 680.17" stroke="rgba(27, 255, 101, 1)" stroke-width="1.5"></path><circle r="5" cx="-63.93" cy="400.07" fill="rgba(27, 255, 101, 1)"></circle><circle r="5" cx="-71.88" cy="508.85" fill="rgba(27, 255, 101, 1)"></circle><circle r="5" cx="-89.09" cy="706.1" fill="rgba(27, 255, 101, 1)"></circle><circle r="5" cx="92.76" cy="370.02" fill="rgba(27, 255, 101, 1)"></circle><circle r="5" cx="221.4" cy="348.26" fill="rgba(27, 255, 101, 1)"></circle><circle r="5" cx="204.69" cy="496.95" fill="rgba(27, 255, 101, 1)"></circle><circle r="5" cx="339.88" cy="373.8" fill="rgba(27, 255, 101, 1)"></circle><circle r="5" cx="363.28" cy="548.25" fill="rgba(27, 255, 101, 1)"></circle><circle r="5" cx="338.31" cy="674.18" fill="rgba(27, 255, 101, 1)"></circle><circle r="5" cx="553.91" cy="386.98" fill="rgba(27, 255, 101, 1)"></circle><circle r="5" cx="525.88" cy="488.76" fill="rgba(27, 255, 101, 1)"></circle><circle r="5" cx="508.72" cy="641.74" fill="rgba(27, 255, 101, 1)"></circle><circle r="5" cx="709.25" cy="228.36" fill="rgba(27, 255, 101, 1)"></circle><circle r="5" cx="688.07" cy="369.56" fill="rgba(27, 255, 101, 1)"></circle><circle r="5" cx="709.76" cy="701.56" fill="rgba(27, 255, 101, 1)"></circle><circle r="5" cx="847.34" cy="207.14" fill="rgba(27, 255, 101, 1)"></circle><circle r="5" cx="816.77" cy="368.56" fill="rgba(27, 255, 101, 1)"></circle><circle r="5" cx="854.2" cy="524.92" fill="rgba(27, 255, 101, 1)"></circle><circle r="5" cx="1009.22" cy="-104.86" fill="rgba(27, 255, 101, 1)"></circle><circle r="5" cx="955.52" cy="53.86" fill="rgba(27, 255, 101, 1)"></circle><circle r="5" cx="982.35" cy="251.11" fill="rgba(27, 255, 101, 1)"></circle><circle r="5" cx="952.96" cy="401.02" fill="rgba(27, 255, 101, 1)"></circle><circle r="5" cx="1006.25" cy="525.58" fill="rgba(27, 255, 101, 1)"></circle><circle r="5" cx="999.7" cy="660.21" fill="rgba(27, 255, 101, 1)"></circle><circle r="5" cx="1101.15" cy="-105.42" fill="rgba(27, 255, 101, 1)"></circle><circle r="5" cx="1088.72" cy="51.11" fill="rgba(27, 255, 101, 1)"></circle><circle r="5" cx="1128.82" cy="242.67" fill="rgba(27, 255, 101, 1)"></circle><circle r="5" cx="1092.9" cy="493.08" fill="rgba(27, 255, 101, 1)"></circle><circle r="5" cx="1089.57" cy="652.74" fill="rgba(27, 255, 101, 1)"></circle><circle r="5" cx="1288.59" cy="-110.73" fill="rgba(27, 255, 101, 1)"></circle><circle r="5" cx="1312.39" cy="61.62" fill="rgba(27, 255, 101, 1)"></circle><circle r="5" cx="1244.87" cy="215.61" fill="rgba(27, 255, 101, 1)"></circle><circle r="5" cx="1283.08" cy="366.92" fill="rgba(27, 255, 101, 1)"></circle><circle r="5" cx="1258.98" cy="525.8" fill="rgba(27, 255, 101, 1)"></circle><circle r="5" cx="1259.55" cy="680.17" fill="rgba(27, 255, 101, 1)"></circle><circle r="5" cx="1390.84" cy="-107.44" fill="rgba(27, 255, 101, 1)"></circle><circle r="5" cx="1424.94" cy="60.62" fill="rgba(27, 255, 101, 1)"></circle><circle r="5" cx="1396.17" cy="222.68" fill="rgba(27, 255, 101, 1)"></circle><circle r="5" cx="1411.27" cy="410.03" fill="rgba(27, 255, 101, 1)"></circle><circle r="5" cx="1429.36" cy="529.07" fill="rgba(27, 255, 101, 1)"></circle><circle r="5" cx="1395.17" cy="671.69" fill="rgba(27, 255, 101, 1)"></circle><circle r="5" cx="1608.79" cy="-85.39" fill="rgba(27, 255, 101, 1)"></circle><circle r="5" cx="1612" cy="110.85" fill="rgba(27, 255, 101, 1)"></circle><circle r="5" cx="1597.58" cy="224.7" fill="rgba(27, 255, 101, 1)"></circle><circle r="5" cx="1558.53" cy="339.02" fill="rgba(27, 255, 101, 1)"></circle><circle r="5" cx="1604.52" cy="518.73" fill="rgba(27, 255, 101, 1)"></circle><circle r="5" cx="1606.8" cy="642.85" fill="rgba(27, 255, 101, 1)"></circle><path d="M972.62 257.39L972.62 257.39" stroke="hsl(169.39999999999998, 100%, 65%)" stroke-width="1.5"></path><path d="M972.62 257.39L961.93 406.25" stroke="hsl(169.39999999999998, 100%, 65%)" stroke-width="1.5"></path><path d="M972.62 257.39L1113.05 190.31" stroke="hsl(169.39999999999998, 100%, 65%)" stroke-width="1.5"></path><path d="M972.62 257.39L1135.88 352.96" stroke="hsl(169.39999999999998, 100%, 65%)" stroke-width="1.5"></path><path d="M972.62 257.39L788.1 349.36" stroke="hsl(169.39999999999998, 100%, 65%)" stroke-width="1.5"></path><path d="M972.62 257.39L1000.96 501.23" stroke="hsl(169.39999999999998, 100%, 65%)" stroke-width="1.5"></path><path d="M972.62 257.39L1243.83 246.66" stroke="hsl(169.39999999999998, 100%, 65%)" stroke-width="1.5"></path><path d="M961.93 406.25L961.93 406.25" stroke="hsl(169.39999999999998, 100%, 65%)" stroke-width="1.5"></path><path d="M961.93 406.25L1000.96 501.23" stroke="hsl(169.39999999999998, 100%, 65%)" stroke-width="1.5"></path><path d="M961.93 406.25L1135.88 352.96" stroke="hsl(169.39999999999998, 100%, 65%)" stroke-width="1.5"></path><path d="M961.93 406.25L788.1 349.36" stroke="hsl(169.39999999999998, 100%, 65%)" stroke-width="1.5"></path><path d="M961.93 406.25L803.12 509.47" stroke="hsl(169.39999999999998, 100%, 65%)" stroke-width="1.5"></path><path d="M1135.88 352.96L1135.88 352.96" stroke="hsl(169.39999999999998, 100%, 65%)" stroke-width="1.5"></path><path d="M1135.88 352.96L1243.83 246.66" stroke="hsl(169.39999999999998, 100%, 65%)" stroke-width="1.5"></path><path d="M1135.88 352.96L1146.43 504.79" stroke="hsl(169.39999999999998, 100%, 65%)" stroke-width="1.5"></path><path d="M1135.88 352.96L1113.05 190.31" stroke="hsl(169.39999999999998, 100%, 65%)" stroke-width="1.5"></path><path d="M1135.88 352.96L1297.36 410.46" stroke="hsl(169.39999999999998, 100%, 65%)" stroke-width="1.5"></path><path d="M1288.04 53.25L1288.04 53.25" stroke="hsl(169.39999999999998, 100%, 65%)" stroke-width="1.5"></path><path d="M1288.04 53.25L1269.73 -57.22" stroke="hsl(169.39999999999998, 100%, 65%)" stroke-width="1.5"></path><path d="M1288.04 53.25L1388.08 -55.54" stroke="hsl(169.39999999999998, 100%, 65%)" stroke-width="1.5"></path><path d="M1288.04 53.25L1437.85 105.96" stroke="hsl(169.39999999999998, 100%, 65%)" stroke-width="1.5"></path><path d="M1288.04 53.25L1243.83 246.66" stroke="hsl(169.39999999999998, 100%, 65%)" stroke-width="1.5"></path><path d="M1288.04 53.25L1113.05 190.31" stroke="hsl(169.39999999999998, 100%, 65%)" stroke-width="1.5"></path><path d="M1309.2 550.47L1309.2 550.47" stroke="hsl(169.39999999999998, 100%, 65%)" stroke-width="1.5"></path><path d="M1309.2 550.47L1305.02 638.37" stroke="hsl(169.39999999999998, 100%, 65%)" stroke-width="1.5"></path><path d="M1309.2 550.47L1405.68 638.97" stroke="hsl(169.39999999999998, 100%, 65%)" stroke-width="1.5"></path><path d="M1309.2 550.47L1297.36 410.46" stroke="hsl(169.39999999999998, 100%, 65%)" stroke-width="1.5"></path><path d="M1309.2 550.47L1448.95 535.78" stroke="hsl(169.39999999999998, 100%, 65%)" stroke-width="1.5"></path><path d="M1309.2 550.47L1146.43 504.79" stroke="hsl(169.39999999999998, 100%, 65%)" stroke-width="1.5"></path><path d="M1305.02 638.37L1305.02 638.37" stroke="hsl(169.39999999999998, 100%, 65%)" stroke-width="1.5"></path><path d="M-50.87 528.24L-50.87 528.24" stroke="hsl(169.39999999999998, 100%, 65%)" stroke-width="1.5"></path><path d="M-50.87 528.24L110.76 513.99" stroke="hsl(169.39999999999998, 100%, 65%)" stroke-width="1.5"></path><path d="M-50.87 528.24L75.14 638.75" stroke="hsl(169.39999999999998, 100%, 65%)" stroke-width="1.5"></path><path d="M-50.87 528.24L-39.04 703.76" stroke="hsl(169.39999999999998, 100%, 65%)" stroke-width="1.5"></path><path d="M-39.04 703.76L-39.04 703.76" stroke="hsl(169.39999999999998, 100%, 65%)" stroke-width="1.5"></path><path d="M-39.04 703.76L75.14 638.75" stroke="hsl(169.39999999999998, 100%, 65%)" stroke-width="1.5"></path><path d="M-39.04 703.76L110.76 513.99" stroke="hsl(169.39999999999998, 100%, 65%)" stroke-width="1.5"></path><path d="M-39.04 703.76L204.38 693.05" stroke="hsl(169.39999999999998, 100%, 65%)" stroke-width="1.5"></path><path d="M-39.04 703.76L235.18 561.42" stroke="hsl(169.39999999999998, 100%, 65%)" stroke-width="1.5"></path><path d="M110.76 513.99L110.76 513.99" stroke="hsl(169.39999999999998, 100%, 65%)" stroke-width="1.5"></path><path d="M110.76 513.99L75.14 638.75" stroke="hsl(169.39999999999998, 100%, 65%)" stroke-width="1.5"></path><path d="M110.76 513.99L235.18 561.42" stroke="hsl(169.39999999999998, 100%, 65%)" stroke-width="1.5"></path><path d="M75.14 638.75L75.14 638.75" stroke="hsl(169.39999999999998, 100%, 65%)" stroke-width="1.5"></path><path d="M75.14 638.75L204.38 693.05" stroke="hsl(169.39999999999998, 100%, 65%)" stroke-width="1.5"></path><path d="M235.18 561.42L235.18 561.42" stroke="hsl(169.39999999999998, 100%, 65%)" stroke-width="1.5"></path><path d="M235.18 561.42L342.27 510.14" stroke="hsl(169.39999999999998, 100%, 65%)" stroke-width="1.5"></path><path d="M204.38 693.05L204.38 693.05" stroke="hsl(169.39999999999998, 100%, 65%)" stroke-width="1.5"></path><path d="M204.38 693.05L235.18 561.42" stroke="hsl(169.39999999999998, 100%, 65%)" stroke-width="1.5"></path><path d="M204.38 693.05L110.76 513.99" stroke="hsl(169.39999999999998, 100%, 65%)" stroke-width="1.5"></path><path d="M204.38 693.05L342.27 510.14" stroke="hsl(169.39999999999998, 100%, 65%)" stroke-width="1.5"></path><path d="M342.27 510.14L342.27 510.14" stroke="hsl(169.39999999999998, 100%, 65%)" stroke-width="1.5"></path><path d="M342.27 510.14L507.4 535.44" stroke="hsl(169.39999999999998, 100%, 65%)" stroke-width="1.5"></path><path d="M342.27 510.14L110.76 513.99" stroke="hsl(169.39999999999998, 100%, 65%)" stroke-width="1.5"></path><path d="M560.32 411.76L560.32 411.76" stroke="hsl(169.39999999999998, 100%, 65%)" stroke-width="1.5"></path><path d="M560.32 411.76L643.86 500.63" stroke="hsl(169.39999999999998, 100%, 65%)" stroke-width="1.5"></path><path d="M560.32 411.76L507.4 535.44" stroke="hsl(169.39999999999998, 100%, 65%)" stroke-width="1.5"></path><path d="M560.32 411.76L788.1 349.36" stroke="hsl(169.39999999999998, 100%, 65%)" stroke-width="1.5"></path><path d="M560.32 411.76L342.27 510.14" stroke="hsl(169.39999999999998, 100%, 65%)" stroke-width="1.5"></path><path d="M560.32 411.76L803.12 509.47" stroke="hsl(169.39999999999998, 100%, 65%)" stroke-width="1.5"></path><path d="M507.4 535.44L507.4 535.44" stroke="hsl(169.39999999999998, 100%, 65%)" stroke-width="1.5"></path><path d="M507.4 535.44L643.86 500.63" stroke="hsl(169.39999999999998, 100%, 65%)" stroke-width="1.5"></path><path d="M507.4 535.44L506.92 702.67" stroke="hsl(169.39999999999998, 100%, 65%)" stroke-width="1.5"></path><path d="M507.4 535.44L663.04 654.74" stroke="hsl(169.39999999999998, 100%, 65%)" stroke-width="1.5"></path><path d="M507.4 535.44L235.18 561.42" stroke="hsl(169.39999999999998, 100%, 65%)" stroke-width="1.5"></path><path d="M506.92 702.67L506.92 702.67" stroke="hsl(169.39999999999998, 100%, 65%)" stroke-width="1.5"></path><path d="M506.92 702.67L663.04 654.74" stroke="hsl(169.39999999999998, 100%, 65%)" stroke-width="1.5"></path><path d="M506.92 702.67L643.86 500.63" stroke="hsl(169.39999999999998, 100%, 65%)" stroke-width="1.5"></path><path d="M506.92 702.67L342.27 510.14" stroke="hsl(169.39999999999998, 100%, 65%)" stroke-width="1.5"></path><path d="M643.86 500.63L643.86 500.63" stroke="hsl(169.39999999999998, 100%, 65%)" stroke-width="1.5"></path><path d="M643.86 500.63L663.04 654.74" stroke="hsl(169.39999999999998, 100%, 65%)" stroke-width="1.5"></path><path d="M643.86 500.63L803.12 509.47" stroke="hsl(169.39999999999998, 100%, 65%)" stroke-width="1.5"></path><path d="M643.86 500.63L788.1 349.36" stroke="hsl(169.39999999999998, 100%, 65%)" stroke-width="1.5"></path><path d="M663.04 654.74L663.04 654.74" stroke="hsl(169.39999999999998, 100%, 65%)" stroke-width="1.5"></path><path d="M663.04 654.74L802.55 649.88" stroke="hsl(169.39999999999998, 100%, 65%)" stroke-width="1.5"></path><path d="M788.1 349.36L788.1 349.36" stroke="hsl(169.39999999999998, 100%, 65%)" stroke-width="1.5"></path><path d="M788.1 349.36L803.12 509.47" stroke="hsl(169.39999999999998, 100%, 65%)" stroke-width="1.5"></path><path d="M803.12 509.47L803.12 509.47" stroke="hsl(169.39999999999998, 100%, 65%)" stroke-width="1.5"></path><path d="M803.12 509.47L802.55 649.88" stroke="hsl(169.39999999999998, 100%, 65%)" stroke-width="1.5"></path><path d="M802.55 649.88L802.55 649.88" stroke="hsl(169.39999999999998, 100%, 65%)" stroke-width="1.5"></path><path d="M802.55 649.88L951.27 640.37" stroke="hsl(169.39999999999998, 100%, 65%)" stroke-width="1.5"></path><path d="M802.55 649.88L643.86 500.63" stroke="hsl(169.39999999999998, 100%, 65%)" stroke-width="1.5"></path><path d="M802.55 649.88L1000.96 501.23" stroke="hsl(169.39999999999998, 100%, 65%)" stroke-width="1.5"></path><path d="M802.55 649.88L961.93 406.25" stroke="hsl(169.39999999999998, 100%, 65%)" stroke-width="1.5"></path><path d="M1000.96 501.23L1000.96 501.23" stroke="hsl(169.39999999999998, 100%, 65%)" stroke-width="1.5"></path><path d="M1000.96 501.23L1146.43 504.79" stroke="hsl(169.39999999999998, 100%, 65%)" stroke-width="1.5"></path><path d="M1000.96 501.23L951.27 640.37" stroke="hsl(169.39999999999998, 100%, 65%)" stroke-width="1.5"></path><path d="M1000.96 501.23L803.12 509.47" stroke="hsl(169.39999999999998, 100%, 65%)" stroke-width="1.5"></path><path d="M1000.96 501.23L1135.88 352.96" stroke="hsl(169.39999999999998, 100%, 65%)" stroke-width="1.5"></path><path d="M1000.96 501.23L1105.35 708.11" stroke="hsl(169.39999999999998, 100%, 65%)" stroke-width="1.5"></path><path d="M951.27 640.37L951.27 640.37" stroke="hsl(169.39999999999998, 100%, 65%)" stroke-width="1.5"></path><path d="M951.27 640.37L1105.35 708.11" stroke="hsl(169.39999999999998, 100%, 65%)" stroke-width="1.5"></path><path d="M951.27 640.37L803.12 509.47" stroke="hsl(169.39999999999998, 100%, 65%)" stroke-width="1.5"></path><path d="M1113.05 190.31L1113.05 190.31" stroke="hsl(169.39999999999998, 100%, 65%)" stroke-width="1.5"></path><path d="M1113.05 190.31L1243.83 246.66" stroke="hsl(169.39999999999998, 100%, 65%)" stroke-width="1.5"></path><path d="M1146.43 504.79L1146.43 504.79" stroke="hsl(169.39999999999998, 100%, 65%)" stroke-width="1.5"></path><path d="M1146.43 504.79L1297.36 410.46" stroke="hsl(169.39999999999998, 100%, 65%)" stroke-width="1.5"></path><path d="M1105.35 708.11L1105.35 708.11" stroke="hsl(169.39999999999998, 100%, 65%)" stroke-width="1.5"></path><path d="M1105.35 708.11L1146.43 504.79" stroke="hsl(169.39999999999998, 100%, 65%)" stroke-width="1.5"></path><path d="M1269.73 -57.22L1269.73 -57.22" stroke="hsl(169.39999999999998, 100%, 65%)" stroke-width="1.5"></path><path d="M1269.73 -57.22L1388.08 -55.54" stroke="hsl(169.39999999999998, 100%, 65%)" stroke-width="1.5"></path><path d="M1269.73 -57.22L1437.85 105.96" stroke="hsl(169.39999999999998, 100%, 65%)" stroke-width="1.5"></path><path d="M1243.83 246.66L1243.83 246.66" stroke="hsl(169.39999999999998, 100%, 65%)" stroke-width="1.5"></path><path d="M1243.83 246.66L1297.36 410.46" stroke="hsl(169.39999999999998, 100%, 65%)" stroke-width="1.5"></path><path d="M1243.83 246.66L1428.24 240.66" stroke="hsl(169.39999999999998, 100%, 65%)" stroke-width="1.5"></path><path d="M1243.83 246.66L1398.14 363.78" stroke="hsl(169.39999999999998, 100%, 65%)" stroke-width="1.5"></path><path d="M1297.36 410.46L1297.36 410.46" stroke="hsl(169.39999999999998, 100%, 65%)" stroke-width="1.5"></path><path d="M1297.36 410.46L1398.14 363.78" stroke="hsl(169.39999999999998, 100%, 65%)" stroke-width="1.5"></path><path d="M1388.08 -55.54L1388.08 -55.54" stroke="hsl(169.39999999999998, 100%, 65%)" stroke-width="1.5"></path><path d="M1388.08 -55.54L1543.49 -93.93" stroke="hsl(169.39999999999998, 100%, 65%)" stroke-width="1.5"></path><path d="M1388.08 -55.54L1437.85 105.96" stroke="hsl(169.39999999999998, 100%, 65%)" stroke-width="1.5"></path><path d="M1388.08 -55.54L1601.8 50.4" stroke="hsl(169.39999999999998, 100%, 65%)" stroke-width="1.5"></path><path d="M1388.08 -55.54L1428.24 240.66" stroke="hsl(169.39999999999998, 100%, 65%)" stroke-width="1.5"></path><path d="M1437.85 105.96L1437.85 105.96" stroke="hsl(169.39999999999998, 100%, 65%)" stroke-width="1.5"></path><path d="M1437.85 105.96L1428.24 240.66" stroke="hsl(169.39999999999998, 100%, 65%)" stroke-width="1.5"></path><path d="M1437.85 105.96L1601.8 50.4" stroke="hsl(169.39999999999998, 100%, 65%)" stroke-width="1.5"></path><path d="M1428.24 240.66L1428.24 240.66" stroke="hsl(169.39999999999998, 100%, 65%)" stroke-width="1.5"></path><path d="M1428.24 240.66L1398.14 363.78" stroke="hsl(169.39999999999998, 100%, 65%)" stroke-width="1.5"></path><path d="M1428.24 240.66L1589.76 231.96" stroke="hsl(169.39999999999998, 100%, 65%)" stroke-width="1.5"></path><path d="M1428.24 240.66L1610.77 344.99" stroke="hsl(169.39999999999998, 100%, 65%)" stroke-width="1.5"></path><path d="M1428.24 240.66L1297.36 410.46" stroke="hsl(169.39999999999998, 100%, 65%)" stroke-width="1.5"></path><path d="M1398.14 363.78L1398.14 363.78" stroke="hsl(169.39999999999998, 100%, 65%)" stroke-width="1.5"></path><path d="M1398.14 363.78L1448.95 535.78" stroke="hsl(169.39999999999998, 100%, 65%)" stroke-width="1.5"></path><path d="M1448.95 535.78L1448.95 535.78" stroke="hsl(169.39999999999998, 100%, 65%)" stroke-width="1.5"></path><path d="M1448.95 535.78L1405.68 638.97" stroke="hsl(169.39999999999998, 100%, 65%)" stroke-width="1.5"></path><path d="M1448.95 535.78L1585.87 524.4" stroke="hsl(169.39999999999998, 100%, 65%)" stroke-width="1.5"></path><path d="M1405.68 638.97L1405.68 638.97" stroke="hsl(169.39999999999998, 100%, 65%)" stroke-width="1.5"></path><path d="M1405.68 638.97L1305.02 638.37" stroke="hsl(169.39999999999998, 100%, 65%)" stroke-width="1.5"></path><path d="M1405.68 638.97L1580.26 647.94" stroke="hsl(169.39999999999998, 100%, 65%)" stroke-width="1.5"></path><path d="M1405.68 638.97L1585.87 524.4" stroke="hsl(169.39999999999998, 100%, 65%)" stroke-width="1.5"></path><path d="M1405.68 638.97L1297.36 410.46" stroke="hsl(169.39999999999998, 100%, 65%)" stroke-width="1.5"></path><path d="M1543.49 -93.93L1543.49 -93.93" stroke="hsl(169.39999999999998, 100%, 65%)" stroke-width="1.5"></path><path d="M1543.49 -93.93L1601.8 50.4" stroke="hsl(169.39999999999998, 100%, 65%)" stroke-width="1.5"></path><path d="M1601.8 50.4L1601.8 50.4" stroke="hsl(169.39999999999998, 100%, 65%)" stroke-width="1.5"></path><path d="M1601.8 50.4L1589.76 231.96" stroke="hsl(169.39999999999998, 100%, 65%)" stroke-width="1.5"></path><path d="M1589.76 231.96L1589.76 231.96" stroke="hsl(169.39999999999998, 100%, 65%)" stroke-width="1.5"></path><path d="M1589.76 231.96L1610.77 344.99" stroke="hsl(169.39999999999998, 100%, 65%)" stroke-width="1.5"></path><path d="M1610.77 344.99L1610.77 344.99" stroke="hsl(169.39999999999998, 100%, 65%)" stroke-width="1.5"></path><path d="M1610.77 344.99L1585.87 524.4" stroke="hsl(169.39999999999998, 100%, 65%)" stroke-width="1.5"></path><path d="M1585.87 524.4L1585.87 524.4" stroke="hsl(169.39999999999998, 100%, 65%)" stroke-width="1.5"></path><path d="M1585.87 524.4L1580.26 647.94" stroke="hsl(169.39999999999998, 100%, 65%)" stroke-width="1.5"></path><path d="M1580.26 647.94L1580.26 647.94" stroke="hsl(169.39999999999998, 100%, 65%)" stroke-width="1.5"></path><path d="M1580.26 647.94L1448.95 535.78" stroke="hsl(169.39999999999998, 100%, 65%)" stroke-width="1.5"></path><path d="M1580.26 647.94L1305.02 638.37" stroke="hsl(169.39999999999998, 100%, 65%)" stroke-width="1.5"></path><path d="M1580.26 647.94L1309.2 550.47" stroke="hsl(169.39999999999998, 100%, 65%)" stroke-width="1.5"></path><path d="M1580.26 647.94L1610.77 344.99" stroke="hsl(169.39999999999998, 100%, 65%)" stroke-width="1.5"></path><circle r="25" cx="972.62" cy="257.39" fill="url(&quot;#SvgjsRadialGradient1011&quot;)"></circle><circle r="25" cx="961.93" cy="406.25" fill="url(&quot;#SvgjsRadialGradient1011&quot;)"></circle><circle r="25" cx="1135.88" cy="352.96" fill="url(&quot;#SvgjsRadialGradient1011&quot;)"></circle><circle r="25" cx="1288.04" cy="53.25" fill="url(&quot;#SvgjsRadialGradient1011&quot;)"></circle><circle r="25" cx="1309.2" cy="550.47" fill="url(&quot;#SvgjsRadialGradient1011&quot;)"></circle><circle r="25" cx="1305.02" cy="638.37" fill="url(&quot;#SvgjsRadialGradient1011&quot;)"></circle><circle r="5" cx="-50.87" cy="528.24" fill="#80ffe9"></circle><circle r="5" cx="-39.04" cy="703.76" fill="#80ffe9"></circle><circle r="5" cx="110.76" cy="513.99" fill="#80ffe9"></circle><circle r="5" cx="75.14" cy="638.75" fill="#80ffe9"></circle><circle r="5" cx="235.18" cy="561.42" fill="#80ffe9"></circle><circle r="5" cx="204.38" cy="693.05" fill="#80ffe9"></circle><circle r="5" cx="342.27" cy="510.14" fill="#80ffe9"></circle><circle r="5" cx="560.32" cy="411.76" fill="#80ffe9"></circle><circle r="5" cx="507.4" cy="535.44" fill="#80ffe9"></circle><circle r="5" cx="506.92" cy="702.67" fill="#80ffe9"></circle><circle r="5" cx="643.86" cy="500.63" fill="#80ffe9"></circle><circle r="5" cx="663.04" cy="654.74" fill="#80ffe9"></circle><circle r="5" cx="788.1" cy="349.36" fill="#80ffe9"></circle><circle r="5" cx="803.12" cy="509.47" fill="#80ffe9"></circle><circle r="5" cx="802.55" cy="649.88" fill="#80ffe9"></circle><circle r="5" cx="1000.96" cy="501.23" fill="#80ffe9"></circle><circle r="5" cx="951.27" cy="640.37" fill="#80ffe9"></circle><circle r="5" cx="1113.05" cy="190.31" fill="#80ffe9"></circle><circle r="5" cx="1146.43" cy="504.79" fill="#80ffe9"></circle><circle r="5" cx="1105.35" cy="708.11" fill="#80ffe9"></circle><circle r="5" cx="1269.73" cy="-57.22" fill="#80ffe9"></circle><circle r="5" cx="1243.83" cy="246.66" fill="#80ffe9"></circle><circle r="5" cx="1297.36" cy="410.46" fill="#80ffe9"></circle><circle r="5" cx="1388.08" cy="-55.54" fill="#80ffe9"></circle><circle r="5" cx="1437.85" cy="105.96" fill="#80ffe9"></circle><circle r="5" cx="1428.24" cy="240.66" fill="#80ffe9"></circle><circle r="5" cx="1398.14" cy="363.78" fill="#80ffe9"></circle><circle r="5" cx="1448.95" cy="535.78" fill="#80ffe9"></circle><circle r="5" cx="1405.68" cy="638.97" fill="#80ffe9"></circle><circle r="5" cx="1543.49" cy="-93.93" fill="#80ffe9"></circle><circle r="5" cx="1601.8" cy="50.4" fill="#80ffe9"></circle><circle r="5" cx="1589.76" cy="231.96" fill="#80ffe9"></circle><circle r="5" cx="1610.77" cy="344.99" fill="#80ffe9"></circle><circle r="5" cx="1585.87" cy="524.4" fill="#80ffe9"></circle><circle r="5" cx="1580.26" cy="647.94" fill="#80ffe9"></circle></g><defs><mask id="SvgjsMask1010"><rect width="1440" height="560" fill="#ffffff"></rect></mask><radialGradient id="SvgjsRadialGradient1011"><stop stop-color="#ffffff" offset="0.1"></stop><stop stop-color="rgba(0, 255, 210, 1)" offset="0.2"></stop><stop stop-color="rgba(0, 255, 210, 0)" offset="1"></stop></radialGradient></defs></svg>